<?xml version="1.0" standalone="no"?>
<!DOCTYPE svg PUBLIC "-//W3C//DTD SVG 20010904//EN"
 "http://www.w3.org/TR/2001/REC-SVG-20010904/DTD/svg10.dtd">
<svg version="1.0" xmlns="http://www.w3.org/2000/svg"
 width="36.000000pt" height="34.000000pt" viewBox="0 0 36.000000 34.000000"
 preserveAspectRatio="xMidYMid meet">

<g transform="translate(0.000000,34.000000) scale(0.100000,-0.100000)"
fill="#000000" stroke="none">
<path d="M107 326 c-108 -40 -139 -147 -62 -214 32 -29 33 -32 24 -67 -6 -20
-9 -39 -7 -41 2 -2 24 10 48 26 28 19 58 30 80 30 44 1 108 29 138 63 35 37
39 94 10 136 -13 19 -37 43 -55 54 -43 25 -128 31 -176 13z"/>
</g>
</svg>
